<?xml version="1.0" encoding="utf-8"?>
<!-- Generator: Adobe Illustrator 26.1.0, SVG Export Plug-In . SVG Version: 6.00 Build 0)  -->
<svg version="1.1" xmlns="http://www.w3.org/2000/svg" xmlns:xlink="http://www.w3.org/1999/xlink" x="0px" y="0px"
	 viewBox="0 0 100 100" style="enable-background:new 0 0 100 100;" xml:space="preserve">
<style type="text/css">
	.st0{fill:none;stroke:#FFFFFF;stroke-width:2;stroke-miterlimit:10;}
	.st1{fill:#669940;}
	.st2{fill:#FFFFFF;}
</style>
<g id="Layer_2">
</g>
<g id="Layer_1">
	
		<rect x="29.02" y="11.86" transform="matrix(0.7071 -0.7071 0.7071 0.7071 -8.5725 44.9676)" class="st0" width="41.94" height="41.94"/>
	
		<rect x="29.02" y="42.67" transform="matrix(0.7071 -0.7071 0.7071 0.7071 -30.3587 53.9917)" class="st0" width="41.94" height="41.94"/>
	
		<rect x="39.85" y="36.66" transform="matrix(0.7071 -0.7071 0.7071 0.7071 -18.4569 49.0703)" class="st1" width="20.3" height="20.3"/>
	<g>
		
			<rect x="33.18" y="26.96" transform="matrix(0.7071 -0.7071 0.7071 0.7071 -24.6104 38.3184)" class="st2" width="1.53" height="43.82"/>
		
			<rect x="64.72" y="26.71" transform="matrix(0.7071 0.7071 -0.7071 0.7071 54.1193 -31.8333)" class="st2" width="1.53" height="45.39"/>
	</g>
	<g>
		
			<rect x="33.19" y="57.78" transform="matrix(0.7071 -0.7071 0.7071 0.7071 -46.4019 47.3525)" class="st2" width="1.53" height="43.82"/>
		
			<rect x="64.73" y="57.54" transform="matrix(0.7071 0.7071 -0.7071 0.7071 75.9163 -22.8125)" class="st2" width="1.53" height="45.39"/>
	</g>
</g>
</svg>
